<svg width="16" height="21" viewBox="0 0 16 21" fill="none" xmlns="http://www.w3.org/2000/svg">
<path d="M14.9007 7.67337C14.9603 7.61727 15.0078 7.54956 15.0403 7.4744C15.0728 7.39925 15.0896 7.31824 15.0896 7.23637C15.0896 7.1545 15.0728 7.07349 15.0403 6.99834C15.0078 6.92318 14.9603 6.85547 14.9007 6.79937L8.04369 0.233371C7.91969 0.117953 7.75658 0.0537872 7.58719 0.0537872C7.41779 0.0537872 7.25468 0.117953 7.13069 0.233371L0.279686 6.79937C0.220056 6.85547 0.172538 6.92318 0.140057 6.99834C0.107576 7.07349 0.0908203 7.1545 0.0908203 7.23637C0.0908203 7.31824 0.107576 7.39925 0.140057 7.4744C0.172538 7.54956 0.220056 7.61727 0.279686 7.67337L1.26469 8.61637C1.51369 8.85637 1.92469 8.85637 2.17769 8.61637L7.13169 3.86837C7.25595 3.75151 7.42011 3.68645 7.59069 3.68645C7.76127 3.68645 7.92542 3.75151 8.04969 3.86837L13.0117 8.60837C13.1345 8.72603 13.2981 8.79171 13.4682 8.79171C13.6383 8.79171 13.8018 8.72603 13.9247 8.60837L14.9007 7.67337Z" fill="#8DDB2E"/>
<path d="M3.27489 10.7858C3.21623 10.7273 3.16969 10.6578 3.13794 10.5813C3.10619 10.5047 3.08984 10.4227 3.08984 10.3398C3.08984 10.257 3.10619 10.1749 3.13794 10.0984C3.16969 10.0219 3.21623 9.95235 3.27489 9.89383L6.92989 6.23883C6.98841 6.18018 7.05793 6.13364 7.13446 6.10188C7.21099 6.07013 7.29303 6.05379 7.37589 6.05379C7.45875 6.05379 7.54079 6.07013 7.61732 6.10188C7.69385 6.13364 7.76337 6.18018 7.82189 6.23883L11.4769 9.89383C11.5944 10.0125 11.6603 10.1728 11.6603 10.3398C11.6603 10.5069 11.5944 10.6671 11.4769 10.7858L7.82189 14.4418C7.70318 14.5593 7.54291 14.6252 7.37589 14.6252C7.20887 14.6252 7.0486 14.5593 6.92989 14.4418L3.27489 10.7858Z" fill="#BCE70C"/>
<path d="M0.279977 13.123C0.220346 13.1791 0.172828 13.2468 0.140347 13.322C0.107867 13.3971 0.0911112 13.4781 0.0911112 13.56C0.0911112 13.6419 0.107867 13.7229 0.140347 13.798C0.172828 13.8732 0.220346 13.9409 0.279977 13.997L7.13698 20.563C7.26097 20.6784 7.42408 20.7426 7.59348 20.7426C7.76287 20.7426 7.92598 20.6784 8.04998 20.563L14.901 13.997C14.9606 13.9409 15.0081 13.8732 15.0406 13.798C15.0731 13.7229 15.0898 13.6419 15.0898 13.56C15.0898 13.4781 15.0731 13.3971 15.0406 13.322C15.0081 13.2468 14.9606 13.1791 14.901 13.123L13.916 12.18C13.667 11.94 13.256 11.94 13.003 12.18L8.04898 16.928C7.92471 17.0449 7.76056 17.1099 7.58998 17.1099C7.4194 17.1099 7.25524 17.0449 7.13098 16.928L2.16898 12.188C2.04612 12.0703 1.88258 12.0047 1.71248 12.0047C1.54237 12.0047 1.37883 12.0703 1.25598 12.188L0.279977 13.123Z" fill="#8DDB2E"/>
</svg>
